# xmcd
# Copyright (C) 1995-1998 Ti Kan
#
# Track frame offsets:
#       150
#       19952
#       27004
#       55656
#       78008
#       92260
#       117912
#       141614
#       162166
#       177318
#
# Disc length: 2456 seconds
#
# Revision: 0
# Processed by: cddbd v1.5.2PL0 Copyright (c) Steve Scherf et al.
# Submitted via: CD-Import v1.0
#
DISCID=7309960a
DTITLE=Sacho - Cowboy
DYEAR=1900
DGENRE=
TTITLE0=Jennifer
TTITLE1=Easy
TTITLE2=Angel
TTITLE3=Traum
TTITLE4=How Long
TTITLE5=The Poor
TTITLE6=Jungle
TTITLE7=Crazy-Baby
TTITLE8=Love Is
TTITLE9=Cowboy
EXTD=
EXTT0=
EXTT1=
EXTT2=
EXTT3=
EXTT4=
EXTT5=
EXTT6=
EXTT7=
EXTT8=
EXTT9=
PLAYORDER=
